<?xml version="1.0" encoding="UTF-8"?>
<svg xmlns="http://www.w3.org/2000/svg" version="1.1" viewBox="0 0 512 512">
  <!-- Generator: Adobe Illustrator 29.0.1, SVG Export Plug-In . SVG Version: 2.1.0 Build 192)  -->
  <defs>
    <style>
      .st0 {
        fill: none;
      }

      .st1 {
        fill: #3b5daa;
      }

      .st2 {
        fill: #fff;
      }

      .st3 {
        opacity: .5;
      }

      .st4 {
        fill: red;
      }

      .st5 {
        display: none;
      }
    </style>
  </defs>
  <g id="Layer_1">
    <g id="SubBack">
      <rect class="st1" y="75.3" width="512" height="361.5" rx="42.9" ry="42.9"/>
    </g>
    <g id="Sub">
      <g>
        <path class="st2" d="M354.8,211.2v21.4h-134.6l25.8-25.8c6.9-6.9,16-10.7,25.8-10.7h21.9v-24.7c0-1.8,1.4-3.2,3.2-3.2s1.7.4,2.3.9c.6.6.9,1.4.9,2.3v24.7h15v-35.4c0-1.8,1.4-3.2,3.2-3.2s1.7.4,2.3.9c.6.6.9,1.4.9,2.3v35.4h18.2c8.3,0,15,6.7,15,15h.1Z"/>
        <g>
          <path class="st2" d="M76.2,275.2c-3.3,1.2-6.3,3.2-8.7,5.7v-39l30,11.3v14l-21.3,8Z"/>
          <path class="st2" d="M76.2,318.7l21.3,8v10.9l-30,13.6v-38.3c2.4,2.5,5.4,4.5,8.7,5.7h0Z"/>
          <path class="st0" d="M67.5,241.8h0"/>
        </g>
        <path class="st2" d="M437.7,278.7h-162.2c-1.8,0-3.2-1.4-3.2-3.2s1.4-3.2,3.2-3.2h159.6c-2.7-5.8-6.4-11.1-11.1-15.9-11-11.2-25.7-17.4-41.4-17.4h-185.2c-4.4,0-8.7.8-12.8,2.3l-80.7,30.3-6.4,2.4-19.1,7.1h0c-6.5,2.4-10.9,8.7-10.9,15.7s4.4,13.3,10.9,15.7h0l19.1,7.1,6.4,2.4,80.7,30.3c4.1,1.5,8.4,2.3,12.8,2.3h184.6c15.3,0,29.9-5.9,40.9-16.5,11-10.7,17.3-24.9,17.6-40.2.1-6.7-.9-13.3-2.9-19.4v.2ZM232.6,278.7h-42.9c-1.8,0-3.2-1.4-3.2-3.2s1.4-3.2,3.2-3.2h42.9c1.8,0,3.2,1.4,3.2,3.2s-1.4,3.2-3.2,3.2ZM254.1,307.7c-1.8,0-3.2-1.4-3.2-3.2s1.4-3.2,3.2-3.2,3.2,1.4,3.2,3.2-1.4,3.2-3.2,3.2h0ZM297,307.7c-1.8,0-3.2-1.4-3.2-3.2s1.4-3.2,3.2-3.2,3.2,1.4,3.2,3.2-1.4,3.2-3.2,3.2ZM339.8,307.7c-1.8,0-3.2-1.4-3.2-3.2s1.4-3.2,3.2-3.2,3.2,1.4,3.2,3.2-1.4,3.2-3.2,3.2ZM382.7,307.7c-1.8,0-3.2-1.4-3.2-3.2s1.4-3.2,3.2-3.2,3.2,1.4,3.2,3.2-1.4,3.2-3.2,3.2Z"/>
      </g>
    </g>
  </g>
  <g id="Layer_2" class="st5">
    <g id="g7433" class="st3">
      <path id="path7429" class="st4" d="M501.5,132.9c-5.9-21.9-23.2-39.2-45.1-45.1-40.1-11-200.3-11-200.3-11,0,0-160.3,0-200.3,10.5-21.5,5.9-39.2,23.6-45.1,45.5C0,172.9,0,256,0,256,0,256,0,339.5,10.5,379.1c5.9,21.9,23.2,39.2,45.1,45.1,40.5,11,200.3,11,200.3,11,0,0,160.3,0,200.3-10.5,21.9-5.9,39.2-23.2,45.1-45.1,10.5-40.1,10.5-123.1,10.5-123.1,0,0,.4-83.5-10.5-123.6h0Z"/>
      <path id="polygon7431" class="st2" d="M205,179.2v153.5l133.3-76.8-133.3-76.8Z"/>
    </g>
  </g>
</svg>