<?xml version="1.0" encoding="UTF-8"?>
<svg id="Layer_1" xmlns="http://www.w3.org/2000/svg" version="1.1" viewBox="0 0 32 32">
  <!-- Generator: Adobe Illustrator 29.1.0, SVG Export Plug-In . SVG Version: 2.1.0 Build 142)  -->
  <defs>
    <style>
      .st0 {
        fill: #00abd1;
      }

      .st1 {
        fill: #60c4f0;
      }

      .st2 {
        fill: #58cbf5;
      }

      .st3 {
        fill: #d8b328;
      }

      .st4 {
        fill: #263470;
      }

      .st5 {
        fill: #3b5daa;
      }

      .st6 {
        fill: #fed500;
      }

      .st7 {
        fill: #fff1ad;
      }
    </style>
  </defs>
  <rect class="st5" width="32" height="32"/>
  <g>
    <path class="st1" d="M9.5,6.1c0,0,0,.1-.1.1s-.1,0-.1-.1v-.8c0,0,0-.1.1-.1s.1,0,.1.1v.8Z"/>
    <path class="st6" d="M12.3,6.9c0,0,0-.1.1-.1s.1,0,.1.1v2.2h-.2v-2.2Z"/>
    <path class="st6" d="M10,5.8v-.2h.5c.4,0,.7.3.7.7v2.9h-.2v-2.9c0-.3-.2-.5-.5-.5h-.5Z"/>
    <path class="st6" d="M10,9.9c0-.1.1-.3.3-.3h6.5c.7,0,1.3.3,1.8.7l2.5,2.5c-.8-.1-1.6-.2-2.4-.2h-8.6v-2.8Z"/>
    <path class="st6" d="M29,26.6c0,0,0,.2-.2.2h-1.5c0,0-.2,0-.2-.1l-.8-2.7c1.2-.7,2.2-1.6,2.7-2.7v5.3Z"/>
    <path class="st6" d="M29,17.3c-.5-1-1.5-1.9-2.7-2.7l.8-2.7c0,0,.1-.1.2-.1h1.5c.1,0,.2,0,.2.2v5.3Z"/>
    <path class="st6" d="M26.2,23.4c-.1,0-.3.2-.5.2-1.9,1-4.4,1.7-7.1,1.7h-9.5c-3.3,0-6-2.7-6-6.1s2.7-6.1,6-6.1h9.5c1.1,0,2.1,0,3,.3.3,0,.6.1.9.2,1.2.3,2.3.7,3.2,1.2.2,0,.3.2.5.3,1.8,1.1,2.8,2.5,2.8,4.1s-1.1,3.1-2.8,4.1Z"/>
    <g>
      <path class="st2" d="M9,19.1c-.9,0-1.6-.7-1.6-1.6s.7-1.6,1.6-1.6,1.6.7,1.6,1.6-.7,1.6-1.6,1.6Z"/>
      <path class="st2" d="M15.4,19.1c-.9,0-1.6-.7-1.6-1.6s.7-1.6,1.6-1.6,1.6.7,1.6,1.6-.7,1.6-1.6,1.6Z"/>
      <path class="st2" d="M21.7,19.1c-.9,0-1.6-.7-1.6-1.6s.7-1.6,1.6-1.6,1.6.7,1.6,1.6-.7,1.6-1.6,1.6Z"/>
    </g>
    <path class="st7" d="M21.3,13.5c-.8,0-10.5,0-13.4.8-4.1,1.1-5,5.1-5,5.1,0-3.3,2.7-6.1,6-6.1h9.5c1,0,1.9,0,2.8.2Z"/>
    <path class="st7" d="M12,9.7c-.5.3-1.4,1.1-1.6,3.1h-.4v-2.8c0-.1.1-.3.3-.3h1.8Z"/>
    <path class="st3" d="M29,19.3c0,1.6-1.1,3.1-2.8,4.1-.1,0-.3.2-.5.2-1.9,1-4.4,1.7-7.1,1.7h-9.5c-2.3,0-4.4-1.4-5.4-3.3.3.3,2.2,2.1,5,2.1,6.2,0,13.9,1.1,18.2-3.2.6-.6,1.8-2.8,1.9-3,.2.4.2.9.2,1.3Z"/>
    <path class="st3" d="M29,21.3v2.7c-.8.8-1.8,1.3-2.3,1.4l-.4-1.5c1.2-.7,2.2-1.6,2.7-2.7Z"/>
    <g>
      <path class="st3" d="M10.9,16.5c.2.3.2.6.2,1,0,1.1-.9,2.1-2.1,2.1s-1.3-.3-1.7-.9c.4.6,1,1.1,1.8,1.1,1.1,0,2.1-.9,2.1-2.1s-.1-.8-.4-1.2Z"/>
      <path class="st3" d="M17.2,16.5c.1.3.2.6.2.9,0,1.1-.9,2.1-2.1,2.1s-1.3-.3-1.7-.9c.4.6,1,1.1,1.8,1.1,1.1,0,2.1-.9,2.1-2.1s-.1-.8-.4-1.2Z"/>
      <path class="st3" d="M23.5,16.5c.2.3.2.6.2,1,0,1.1-.9,2.1-2.1,2.1s-1.3-.3-1.7-.9c.4.6,1,1.1,1.8,1.1,1.1,0,2.1-.9,2.1-2.1s-.1-.8-.4-1.2Z"/>
    </g>
    <g>
      <path class="st0" d="M9,15.9c-.9,0-1.6.7-1.6,1.6s.1.6.3.9c0-.2-.1-.4-.1-.7,0-.9.7-1.6,1.6-1.6s1,.2,1.3.6c-.3-.5-.8-.8-1.4-.8Z"/>
      <path class="st0" d="M15.4,15.9c-.9,0-1.6.7-1.6,1.6s.1.7.3.9c-.1-.2-.2-.5-.2-.7,0-.9.7-1.6,1.6-1.6s1,.3,1.3.7c-.2-.5-.8-.9-1.4-.9Z"/>
      <path class="st0" d="M21.7,15.9c-.9,0-1.6.7-1.6,1.6s.1.6.3.9c0-.2-.1-.4-.1-.7,0-.9.7-1.6,1.6-1.6s1,.2,1.3.6c-.3-.5-.8-.8-1.4-.8Z"/>
    </g>
    <g>
      <circle class="st0" cx="22.7" cy="6.2" r=".2"/>
      <path class="st4" d="M22.7,6c.1,0,.2.1.2.2s-.1.2-.2.2-.2-.1-.2-.2.1-.2.2-.2M22.7,5.5c-.4,0-.8.3-.8.8s.3.8.8.8.8-.3.8-.8-.3-.8-.8-.8h0Z"/>
    </g>
    <g>
      <circle class="st0" cx="25.8" cy="7.4" r=".2"/>
      <path class="st4" d="M25.8,7.2c.1,0,.2.1.2.2s-.1.2-.2.2-.2-.1-.2-.2.1-.2.2-.2M25.8,6.7c-.4,0-.8.3-.8.8s.3.8.8.8.8-.3.8-.8-.3-.8-.8-.8h0Z"/>
    </g>
    <g>
      <circle class="st0" cx="24" cy="10.4" r=".4"/>
      <path class="st4" d="M24,10.1c.2,0,.4.2.4.4s-.2.4-.4.4-.4-.2-.4-.4.2-.4.4-.4M24,9.6c-.5,0-.9.4-.9.9s.4.9.9.9.9-.4.9-.9-.4-.9-.9-.9h0Z"/>
    </g>
    <g>
      <path class="st4" d="M28.8,11.3h-1.5c-.3,0-.6.2-.7.5l-.8,2.6c-1.1-.6-2.5-1.1-4-1.4h0l-3-3c-.6-.6-1.3-.9-2.1-.9h-3.7v-2.2c0-.3-.3-.6-.6-.6s-.6.3-.6.6v2.2h0v-2.9c0-.7-.5-1.2-1.2-1.2h-.5c0-.2-.3-.4-.6-.4s-.6.3-.6.6v.8c0,.3.3.6.6.6s.5-.2.6-.4h.5v2.8h-.2c-.4,0-.8.3-.8.8v2.8h-.4c-3.6,0-6.5,2.9-6.5,6.6s2.9,6.6,6.5,6.6h9.5c2.8,0,5.3-.6,7.3-1.7l.8,2.6c0,.3.4.5.7.5h1.5c.4,0,.7-.3.7-.7v-14.6c0-.4-.3-.7-.7-.7ZM9.5,6.1c0,0,0,.1-.1.1s-.1,0-.1-.1v-.8c0,0,0-.1.1-.1s.1,0,.1.1v.8ZM12.3,6.9c0,0,0-.1.1-.1s.1,0,.1.1v2.2h-.2v-2.2ZM10,5.8v-.2h.5c.4,0,.7.3.7.7v2.9h-.2v-2.9c0-.3-.2-.5-.5-.5h-.5ZM10,9.9c0-.1.1-.3.3-.3h6.5c.7,0,1.3.3,1.8.7l2.5,2.5c-.8-.1-1.6-.2-2.4-.2h-8.6v-2.8ZM29,26.6c0,0,0,.2-.2.2h-1.5c0,0-.2,0-.2-.1l-.8-2.7c1.2-.7,2.2-1.6,2.7-2.7v5.3ZM26.2,23.4c-.1,0-.3.2-.5.2-1.9,1-4.4,1.7-7.1,1.7h-9.5c-3.3,0-6-2.7-6-6.1s2.7-6.1,6-6.1h9.5c1.1,0,2.1,0,3,.3.3,0,.6.1.9.2,1.2.3,2.3.7,3.2,1.2.2,0,.3.2.5.3,1.8,1.1,2.8,2.5,2.8,4.1s-1.1,3.1-2.8,4.1ZM29,17.3c-.5-1-1.5-1.9-2.7-2.7l.8-2.7c0,0,.1-.1.2-.1h1.5c.1,0,.2,0,.2.2v5.3Z"/>
      <g>
        <path class="st4" d="M9,15.4c-1.1,0-2.1.9-2.1,2.1s.9,2.1,2.1,2.1,2.1-.9,2.1-2.1-.9-2.1-2.1-2.1ZM9,19.1c-.9,0-1.6-.7-1.6-1.6s.7-1.6,1.6-1.6,1.6.7,1.6,1.6-.7,1.6-1.6,1.6Z"/>
        <path class="st4" d="M15.4,15.4c-1.1,0-2.1.9-2.1,2.1s.9,2.1,2.1,2.1,2.1-.9,2.1-2.1-.9-2.1-2.1-2.1ZM15.4,19.1c-.9,0-1.6-.7-1.6-1.6s.7-1.6,1.6-1.6,1.6.7,1.6,1.6-.7,1.6-1.6,1.6Z"/>
        <path class="st4" d="M21.7,15.4c-1.1,0-2.1.9-2.1,2.1s.9,2.1,2.1,2.1,2.1-.9,2.1-2.1-.9-2.1-2.1-2.1ZM21.7,19.1c-.9,0-1.6-.7-1.6-1.6s.7-1.6,1.6-1.6,1.6.7,1.6,1.6-.7,1.6-1.6,1.6Z"/>
      </g>
    </g>
  </g>
</svg>