<?xml version="1.0" encoding="UTF-8"?>
<svg xmlns="http://www.w3.org/2000/svg" version="1.1" viewBox="0 0 512 512">
  <defs>
    <style>
      .cls-1 {
        fill: none;
      }

      .cls-2 {
        fill: #d6d6d6;
      }

      .cls-3 {
        fill: #214696;
      }

      .cls-4 {
        fill: #3b5daa;
      }

      .cls-5 {
        fill: #fff;
      }
    </style>
  </defs>
  <!-- Generator: Adobe Illustrator 28.7.1, SVG Export Plug-In . SVG Version: 1.2.0 Build 142)  -->
  <g>
    <g id="Layer_1">
      <g>
        <g id="SubBack">
          <rect class="cls-4" y="75.3" width="512" height="361.5" rx="42.9" ry="42.9"/>
          <path class="cls-3" d="M0,256h512v137.9c0,23.7-19.2,42.9-42.9,42.9H42.9c-23.7,0-42.9-19.2-42.9-42.9v-137.9h0Z"/>
        </g>
        <g id="Sub">
          <g>
            <path class="cls-5" d="M354.8,191.7v21.4h-134.6l25.8-25.8c6.9-6.9,16-10.7,25.8-10.7h21.9v-24.7c0-1.8,1.4-3.2,3.2-3.2s1.7.4,2.3.9c.6.6.9,1.4.9,2.3v24.7h15v-35.4c0-1.8,1.4-3.2,3.2-3.2s1.7.4,2.3.9c.6.6.9,1.4.9,2.3v35.4h18.2c8.3,0,15,6.7,15,15Z"/>
            <g>
              <path class="cls-5" d="M76.2,255.7c-3.3,1.2-6.3,3.2-8.7,5.7v-39l30,11.3v14l-21.3,8Z"/>
              <path class="cls-5" d="M76.2,299.2l21.3,8v10.9l-30,13.6v-38.3c2.4,2.5,5.4,4.5,8.7,5.7Z"/>
              <path class="cls-1" d="M67.5,222.4h0"/>
            </g>
            <path class="cls-5" d="M437.7,259.2h-162.2c-1.8,0-3.2-1.4-3.2-3.2s1.4-3.2,3.2-3.2h159.6c-2.7-5.8-6.4-11.1-11.1-15.9-11-11.2-25.7-17.4-41.4-17.4h-185.2c-4.4,0-8.7.8-12.8,2.3l-80.7,30.3-6.4,2.4-19.1,7.1h0s0,0,0,0c-6.5,2.4-10.9,8.7-10.9,15.7s4.4,13.3,10.9,15.7h0s0,0,0,0l19.1,7.1,6.4,2.4,80.7,30.3c4.1,1.5,8.4,2.3,12.8,2.3h184.6c15.3,0,29.9-5.9,40.9-16.5,11-10.7,17.3-24.9,17.6-40.2.1-6.7-.9-13.3-2.9-19.4ZM232.6,259.2h-42.9c-1.8,0-3.2-1.4-3.2-3.2s1.4-3.2,3.2-3.2h42.9c1.8,0,3.2,1.4,3.2,3.2s-1.4,3.2-3.2,3.2ZM254.1,288.2c-1.8,0-3.2-1.4-3.2-3.2s1.4-3.2,3.2-3.2,3.2,1.4,3.2,3.2-1.4,3.2-3.2,3.2ZM297,288.2c-1.8,0-3.2-1.4-3.2-3.2s1.4-3.2,3.2-3.2,3.2,1.4,3.2,3.2-1.4,3.2-3.2,3.2ZM339.8,288.2c-1.8,0-3.2-1.4-3.2-3.2s1.4-3.2,3.2-3.2,3.2,1.4,3.2,3.2-1.4,3.2-3.2,3.2ZM382.7,288.2c-1.8,0-3.2-1.4-3.2-3.2s1.4-3.2,3.2-3.2,3.2,1.4,3.2,3.2-1.4,3.2-3.2,3.2Z"/>
          </g>
          <path class="cls-2" d="M437.7,259.2h-162.2c-1.8,0-3.2-1.4-3.2-3.2h-36.4c0,1.8-1.4,3.2-3.2,3.2h-42.9c-1.8,0-3.2-1.4-3.2-3.2h-92.8l-15.2,5.7h0s0,0,0,0c-6.5,2.4-10.9,8.7-10.9,15.7s4.4,13.3,10.9,15.7h0s0,0,0,0l19.1,7.1,6.4,2.4,80.7,30.3c4.1,1.5,8.4,2.3,12.8,2.3h184.6c15.3,0,29.9-5.9,40.9-16.5,11-10.7,17.3-24.9,17.6-40.2.1-6.7-.9-13.3-2.9-19.4ZM254.1,288.2c-1.8,0-3.2-1.4-3.2-3.2s1.4-3.2,3.2-3.2,3.2,1.4,3.2,3.2-1.4,3.2-3.2,3.2ZM297,288.2c-1.8,0-3.2-1.4-3.2-3.2s1.4-3.2,3.2-3.2,3.2,1.4,3.2,3.2-1.4,3.2-3.2,3.2ZM339.8,288.2c-1.8,0-3.2-1.4-3.2-3.2s1.4-3.2,3.2-3.2,3.2,1.4,3.2,3.2-1.4,3.2-3.2,3.2ZM382.7,288.2c-1.8,0-3.2-1.4-3.2-3.2s1.4-3.2,3.2-3.2,3.2,1.4,3.2,3.2-1.4,3.2-3.2,3.2Z"/>
          <path class="cls-2" d="M76.2,299.2c-3.3-1.2-6.3-3.2-8.7-5.7v38.3l30-13.6v-10.9l-21.3-8Z"/>
          <path class="cls-2" d="M67.5,222.4v39c2.4-2.5,5.4-4.5,8.7-5.7l21.3-8v-14l-30-11.3Z"/>
          <path class="cls-2" d="M339.8,176.7h-68c-9.7,0-18.9,3.8-25.8,10.7l-25.8,25.8h134.6v-21.4c0-8.3-6.7-15-15-15Z"/>
        </g>
      </g>
    </g>
  </g>
</svg>