<?xml version="1.0" encoding="UTF-8"?>
<svg id="Layer_1" xmlns="http://www.w3.org/2000/svg" version="1.1" viewBox="0 0 512 512">
  <!-- Generator: Adobe Illustrator 29.2.0, SVG Export Plug-In . SVG Version: 2.1.0 Build 10)  -->
  <defs>
    <style>
      .st0 {
        fill: #9ed5b7;
      }

      .st1 {
        fill: #53c9f2;
      }

      .st2 {
        fill: #fcc085;
      }

      .st3 {
        fill: #a4b6de;
      }

      .st4 {
        fill: #cb6528;
      }

      .st5 {
        fill: #b6e4f5;
      }

      .st6 {
        fill: #f47c20;
      }

      .st7 {
        fill: #19294b;
      }

      .st8 {
        fill: #33abe2;
      }

      .st9 {
        fill: #3b5daa;
      }

      .st10 {
        stroke-width: .7px;
      }

      .st10, .st11 {
        fill: none;
        stroke: #19294b;
        stroke-miterlimit: 10;
      }

      .st12 {
        fill: #29427a;
      }

      .st11 {
        stroke-width: 1.8px;
      }

      .st13 {
        fill: #b7e4f3;
      }

      .st14 {
        fill: #79a9d8;
      }

      .st15 {
        fill: #10aee4;
      }

      .st16 {
        fill: #28427b;
      }
    </style>
  </defs>
  <rect class="st0" width="512" height="512"/>
  <g>
    <g>
      <path class="st9" d="M427.6,283c0,44.3-35.9,80.2-80.2,80.2H106.7c-38.5,0-70.7-27.2-78.5-63.4h50.6c10.3,0,19.8-3,27.8-8.3,14-9.1,23.3-24.9,23.3-42.8v-45.4c0-.2,0-.4,0-.5h217.5c44.3,0,80.2,35.9,80.2,80.2Z"/>
      <path class="st6" d="M126.7,200.1c1.8,0,3.2,1.4,3.2,3.2v45.4c0,17.9-9.3,33.7-23.3,42.8-8,5.2-17.6,8.3-27.8,8.3H28.1c-1.6,0-2.9-1.1-3.2-2.7-.8-4.6-1.2-9.4-1.2-14.2s0,0,0,0c0-1,.8-1.9,1.9-1.9h53.2c11.8,0,22.2-6.4,27.8-15.9,2.9-4.8,4.5-10.5,4.5-16.5v-45.4c0-1.8,1.4-3.2,3.2-3.2h12.3Z"/>
      <path class="st9" d="M459.3,276.3v13.4h-9c.1-2.2.2-4.5.2-6.7s0-4.5-.2-6.7h9Z"/>
      <path class="st6" d="M441.3,283c0,8.3-.8,16.4-2.3,24.3,0,0,0,.1,0,.1-1.5,7.5-8.2,13-15.9,13h-4.7c2-3.9,3.8-7.9,5.2-12.1,2.6-8,4.1-16.5,4.1-25.3s-1.4-17.3-4.1-25.3c-1.4-4.2-3.1-8.3-5.2-12.1h4.7c7.7,0,14.3,5.4,15.9,13,0,0,0,.1,0,.1,1.5,7.9,2.3,16,2.3,24.3Z"/>
      <path class="st6" d="M450.4,283c0,3.5-.1,6.9-.4,10.3-.5,6.7-5,12.1-11,14.1,0,0,0-.1,0-.1,1.5-7.9,2.3-16,2.3-24.3s-.8-16.4-2.3-24.3c0,0,0-.1,0-.1,6,2,10.5,7.5,11,14.1.3,3.4.4,6.8.4,10.3Z"/>
      <path class="st9" d="M461.9,270.9h10.2c6.7,0,12.1,5.4,12.1,12.1h0c0,6.7-5.4,12.1-12.1,12.1h-10.2c-1.5,0-2.7-1.2-2.7-2.7v-18.7c0-1.5,1.2-2.7,2.7-2.7Z"/>
      <path class="st6" d="M488.2,230.7c0,12.9-5.7,30.9-9.8,42-1.8-1.1-4-1.8-6.3-1.8h-1.6c-3.2-10.8-7.3-26.7-7.3-37.9s6.7-16,11.6-16c10.2,0,13.4,9,13.4,13.8Z"/>
      <path class="st6" d="M477.9,333c0,6.5-1.9,10.7-4.4,13.1-2.2,2.1-4.9,3-7.2,3h0c-10.2,0-13.4-9-13.4-13.8,0-12.2,5.1-29,9.1-40.2h8.5c3.2,10.8,7.3,26.7,7.3,37.9Z"/>
      <path class="st9" d="M147.6,202.3l15.3-21.2c2.5-3.5,6.6-5.6,10.9-5.6h122.6c7.4,0,13.4,6,13.4,13.4v13.4h-162.1Z"/>
      <path class="st9" d="M286.6,157.9c0,3.8-1.5,7.2-4,9.7-2.5,2.5-6,4.1-9.8,4.1h-81.9l12.6-17.4c2.5-3.5,6.6-5.6,10.9-5.6h66.5c1.4,0,2.8.2,4,.6h-1.2c1.9,2.4,3,5.3,3,8.5Z"/>
      <path class="st1" d="M29.1,281.1h49.7c11.8,0,22.2-6.4,27.8-15.9,2.9-4.8,4.5-10.5,4.5-16.5v-43.3s-4.5,0-4.5,0c-42.2,0-76.5,33.7-77.5,75.7h0Z"/>
      <circle class="st6" cx="185.3" cy="246.2" r="16.8"/>
      <circle class="st1" cx="185.3" cy="246.2" r="11.2"/>
      <circle class="st6" cx="236.4" cy="246.2" r="16.8"/>
      <circle class="st1" cx="236.4" cy="246.2" r="11.2"/>
      <circle class="st6" cx="287.4" cy="246.2" r="16.8"/>
      <circle class="st1" cx="287.4" cy="246.2" r="11.2"/>
      <path class="st6" d="M309.7,188.9h-64.6c-7.4,0-13.4-6-13.4-13.4h64.6c7.4,0,13.4,6,13.4,13.4Z"/>
    </g>
    <g>
      <path class="st12" d="M294.1,162.1v13.4h-106l2.7-3.7h81.9c3.8,0,7.3-1.6,9.8-4.1,2.5-2.5,4-5.9,4-9.7s-1.1-6.2-3-8.5h1.2c5.4,1.7,9.3,6.8,9.3,12.8Z"/>
      <path class="st4" d="M463.2,233c0,11.2,4.1,27.1,7.3,37.9h-8c-3.2-10.8-7.3-26.7-7.3-37.9s6.7-16,11.6-16h8c-5,0-11.6,3.7-11.6,16Z"/>
      <path class="st4" d="M486,333c0,12.3-6.7,16-11.6,16h-8c2.3,0,5-.8,7.2-3,2.5-2.4,4.4-6.5,4.4-13.1,0-11.2-4.1-27.1-7.3-37.9h1.5c2.2,0,4.2-.6,6-1.6,3.3,10.8,7.8,27.8,7.8,39.6Z"/>
      <path class="st12" d="M424.3,283c0,42.4-34.5,76.9-76.9,76.9H106.7c-17.7,0-35-6.2-48.7-17.4-10.5-8.6-18.5-19.8-23.3-32.4-.7-1.9-2.6-3.2-4.6-3.2h0c-.7-2.3-1.4-4.7-1.9-7.1h50.6c10.3,0,19.8-3,27.8-8.3,14-9.1,23.3-24.9,23.3-42.8v-9.2h.7v19.4c0,2-.1,4-.4,5.9-2.9,23.7-22.6,42.1-47.1,42.1s-16.3,7.3-16.3,16.3,0,.3,0,.4c.2,8.9,7.8,15.9,16.7,15.9h275.3c.6,0,1.1,0,1.7,0h0c.5,0,1.1,0,1.6,0,23.8,0,44.6-13.4,55-33.2,4.2-7.9,6.7-16.9,7.1-26.4,0,1,0,2,0,2.9Z"/>
      <path class="st4" d="M129.9,220.9v27.8c0,17.9-9.3,33.7-23.3,42.8-8,5.2-17.6,8.3-27.8,8.3H28.1c-1.6,0-2.9-1.1-3.2-2.7,0-.5-.2-.9-.2-1.4h55.6c26.9,0,48.6-21.8,48.6-48.6v-26.3h1Z"/>
      <path class="st4" d="M424.4,307.7h1.1c7.8,0,14.7-6.4,14.7-14.2v-3.2s1.2,2.2,1.2,2.2l-.7,9.9c-.6,8.8-8,15.7-16.8,15.7h-4.4l4.9-10.4Z"/>
      <path class="st4" d="M440.1,304.3h.6l.4-4.1h0c4.1,0,7.9-3.2,8.1-7.3l.6-11.2,1,10.3-1,.4c-.6,4.9-4.7,11.8-9.7,11.9Z"/>
      <path class="st12" d="M459.2,288h18.1c3.2,0,5.8-2.6,5.7-5.7h0s.9,1,.9,1v.3c0,4.4-3.6,8-8,8h-17.5l.9-3.6Z"/>
      <path class="st12" d="M459.3,284v2.8h-8.9c0-.9,0-1.8,0-2.8h8.9Z"/>
      <path class="st16" d="M202.1,247.8c0,9.3-7.5,16.8-16.8,16.8s-16.8-7.5-16.8-16.8,0-.4,0-.5c.3,9,7.7,16.2,16.8,16.2s16.5-7.2,16.8-16.2c0,.2,0,.4,0,.5Z"/>
      <path class="st4" d="M201.2,246.6c-.2,8.6-7.2,15.6-15.9,15.6s-15.7-6.9-15.9-15.6c.2,7.5,7.3,13.4,15.9,13.4s15.7-6,15.9-13.4Z"/>
      <path class="st8" d="M177.2,253.9c-1.9-2-3.1-4.7-3.1-7.7,0-6.2,5-11.2,11.2-11.2s5.7,1.2,7.7,3.1c-3.9-3.7-10.5-3.3-14.8,1-4.3,4.3-4.8,10.9-1,14.8Z"/>
      <path class="st8" d="M196.5,246.2c0,6.2-5,11.2-11.2,11.2s-5.7-1.2-7.7-3.1c3.9,3.7,10.5,3.3,14.8-1s4.8-10.9,1-14.8c1.9,2,3.1,4.7,3.1,7.7Z"/>
      <path class="st16" d="M253.1,247.8c0,9.3-7.5,16.8-16.8,16.8s-16.8-7.5-16.8-16.8,0-.4,0-.5c.3,9,7.7,16.2,16.8,16.2s16.5-7.2,16.8-16.2c0,.2,0,.4,0,.5Z"/>
      <path class="st4" d="M252.3,246.6c-.2,8.6-7.2,15.6-15.9,15.6s-15.7-6.9-15.9-15.6c.2,7.5,7.3,13.4,15.9,13.4s15.7-6,15.9-13.4Z"/>
      <path class="st8" d="M228.2,253.9c-1.9-2-3.1-4.7-3.1-7.7,0-6.2,5-11.2,11.2-11.2s5.7,1.2,7.7,3.1c-3.9-3.7-10.5-3.3-14.8,1-4.3,4.3-4.8,10.9-1,14.8Z"/>
      <path class="st8" d="M247.6,246.2c0,6.2-5,11.2-11.2,11.2s-5.7-1.2-7.7-3.1c3.9,3.7,10.5,3.3,14.8-1,4.3-4.3,4.8-10.9,1-14.8,1.9,2,3.1,4.7,3.1,7.7Z"/>
      <path class="st16" d="M304.2,247.8c0,9.3-7.5,16.8-16.8,16.8s-16.8-7.5-16.8-16.8,0-.4,0-.5c.3,9,7.7,16.2,16.8,16.2s16.5-7.2,16.8-16.2c0,.2,0,.4,0,.5Z"/>
      <path class="st4" d="M303.4,246.6c-.2,8.6-7.2,15.6-15.9,15.6s-15.7-6.9-15.9-15.6c.2,7.5,7.3,13.4,15.9,13.4s15.7-6,15.9-13.4Z"/>
      <path class="st8" d="M279.3,253.9c-1.9-2-3.1-4.7-3.1-7.7,0-6.2,5-11.2,11.2-11.2s5.7,1.2,7.7,3.1c-3.9-3.7-10.5-3.3-14.8,1-4.3,4.3-4.8,10.9-1,14.8Z"/>
      <path class="st8" d="M298.7,246.2c0,6.2-5,11.2-11.2,11.2s-5.7-1.2-7.7-3.1c3.9,3.7,10.5,3.3,14.8-1,4.3-4.3,4.8-10.9,1-14.8,1.9,2,3.1,4.7,3.1,7.7Z"/>
      <path class="st15" d="M30,271s4,4,18.7,4c54.4,0,61.7-40.8,61.7-40.8v15.1c0,17.6-14.2,31.8-31.8,31.8H29.1l.9-10.1Z"/>
      <path class="st12" d="M300.6,176.2c0,0-.2,0-.2,0h0c0,0,.1,0,.2,0Z"/>
      <path class="st12" d="M304.3,178.2c-.3-.3-.7-.5-1.1-.7.4.2.7.5,1.1.7Z"/>
      <path class="st12" d="M307.4,181.4c-.2-.4-.5-.7-.8-1,.3.3.5.7.8,1Z"/>
      <path class="st16" d="M309.7,188.9v13.4h-162.1l2.7-3.7h138c3.8,0,7.3-1.6,9.8-4.1,1-1,1.8-2.1,2.5-3.4h-55.5c-7.4,0-13.4-6-13.4-13.4h0c.5,6.9,6.3,11.2,13.3,11.2h56c.1-.3.3.4.4,0h8.2Z"/>
      <polygon class="st14" points="163.2 198.5 160.5 202.3 157.8 202.3 160.5 198.5 163.2 198.5"/>
      <polygon class="st14" points="181.9 198.5 179.2 202.3 165.8 202.3 168.5 198.5 181.9 198.5"/>
      <polygon class="st14" points="198 171.8 199.1 171.8 196.4 175.5 195.3 175.5 198 171.8"/>
      <polygon class="st14" points="214.1 171.8 211.4 175.5 200.7 175.5 203.4 171.8 214.1 171.8"/>
      <path class="st4" d="M301.5,188.9c.4-1.3.6-2.7.6-4.2,0-3.2-1.1-6.2-3-8.5h1.2c0,0,.2,0,.2,0,.1,0,.2,0,.3.1.2,0,.4.2.6.2.2,0,.4.2.6.3.2,0,.4.2.6.3.2.1.4.2.5.3,0,0,0,0,0,0,.4.2.7.5,1.1.7s.3.3.5.4c.3.3.6.6.9.9.1.1.3.3.4.5.1.2.3.3.4.5.3.3.5.7.8,1,.1.2.2.3.3.5,0,0,0,0,0,0,.1.2.2.4.3.5.2.4.4.7.5,1.1,0,0,0,.2.1.3,0,.1.1.3.2.4,0,.2.1.4.2.6,0,0,0,0,0,.1.1.4.2.8.3,1.2,0,.2,0,.4.1.7,0,.2,0,.4,0,.6,0,0,0,0,0,0,0,.2,0,.4,0,.6,0,.3,0,.5,0,.8h-8.2Z"/>
    </g>
    <g>
      <path class="st2" d="M440.9,272.6h-13.9c-.7-5.1-1.8-10.1-3.4-14.9,0-.2-.1-.4-.2-.6h15.3c.1.5.2.9.3,1.4,0,0,0,.1,0,.1.9,4.6,1.5,9.2,1.9,13.9Z"/>
      <path class="st2" d="M450.2,275.7h-9.1c-.2-3.4-.5-6.7-.9-10h7.7c1.2,2.1,2,4.4,2.2,6.9,0,1,.1,2,.2,3Z"/>
      <path class="st3" d="M482.9,277.6h-23.6v-2.8h21.7c.8.8,1.4,1.8,1.9,2.8Z"/>
      <path class="st2" d="M169.4,245.8c.2-8.6,7.2-15.6,15.9-15.6s15.7,6.9,15.9,15.6c-.2-7.5-7.3-13.4-15.9-13.4s-15.7,6-15.9,13.4Z"/>
      <path class="st13" d="M193.4,238.5l-15.9,15.9c-2-1.9-3.3-4.6-3.5-7.5l11.9-11.9c2.9.2,5.6,1.5,7.5,3.5Z"/>
      <path class="st13" d="M196.5,245.9l-11.6,11.6c-2,0-3.9-.7-5.6-1.7l15.5-15.5c1,1.6,1.6,3.5,1.7,5.6Z"/>
      <path class="st2" d="M220.5,245.8c.2-8.6,7.2-15.6,15.9-15.6s15.7,6.9,15.9,15.6c-.2-7.5-7.3-13.4-15.9-13.4s-15.7,6-15.9,13.4Z"/>
      <path class="st13" d="M244.5,238.5l-15.9,15.9c-2-1.9-3.3-4.6-3.5-7.5l11.9-11.9c2.9.2,5.6,1.5,7.5,3.5Z"/>
      <path class="st13" d="M247.6,245.9l-11.6,11.6c-2,0-3.9-.7-5.6-1.7l15.5-15.5c1,1.6,1.6,3.5,1.7,5.6Z"/>
      <path class="st2" d="M271.5,245.8c.2-8.6,7.2-15.6,15.9-15.6s15.7,6.9,15.9,15.6c-.2-7.5-7.3-13.4-15.9-13.4s-15.7,6-15.9,13.4Z"/>
      <path class="st13" d="M295.6,238.5l-15.9,15.9c-2-1.9-3.3-4.6-3.5-7.5l11.9-11.9c2.9.2,5.6,1.5,7.5,3.5Z"/>
      <path class="st13" d="M298.7,245.9l-11.6,11.6c-2,0-3.9-.7-5.6-1.7l15.5-15.5c1,1.6,1.6,3.5,1.7,5.6Z"/>
      <path class="st2" d="M25.3,289.6l-.6-8,54.8-.3c17.6-.1,31.7-14.4,31.7-31.9l.7-2.5v5c0,17.5-14.2,31.7-31.7,31.7H28.5c-1.4,0-2.6,1-2.8,2.4l-.5,3.7Z"/>
      <path class="st2" d="M129.3,203.3h-14.7c-.9.1-1.7.6-2.2,1.4l-.6,1.1v-5.4h17.5v2.9Z"/>
      <path class="st5" d="M92.5,219.7c-19.9,9.9-36.7,25.2-48.2,44.1-.8,1.3-2.8.5-2.4-1,5.2-24,25.2-42.5,49.9-45.6,1.5-.2,2.1,1.9.8,2.5Z"/>
      <polygon class="st3" points="215.7 148.8 199.1 171.8 196.4 175.5 195.3 175.5 198 171.8 214.6 148.8 215.7 148.8"/>
      <polygon class="st3" points="179.7 175.5 163.2 198.5 160.5 198.5 177.1 175.5 179.7 175.5"/>
      <polygon class="st3" points="198.5 175.5 181.9 198.5 168.5 198.5 185.1 175.5 198.5 175.5"/>
      <polygon class="st3" points="230.6 148.8 214.1 171.8 203.4 171.8 219.9 148.8 230.6 148.8"/>
      <path class="st3" d="M384.6,219.5c-7-2.7-14.5-4.2-22.4-4.2s-1.8,0-2.7,0c-.2,0-.4,0-.6,0h-227.6c0,0-1.3,0-1.3,0v-5.9h217.4c13.6,0,26.3,3.7,37.2,10.1Z"/>
    </g>
    <g>
      <circle class="st7" cx="55" cy="290.5" r="2.7"/>
      <circle class="st7" cx="85.7" cy="289.9" r="2.7"/>
      <circle class="st7" cx="111.6" cy="274.7" r="2.7"/>
      <circle class="st7" cx="120.6" cy="246.1" r="2.7"/>
      <circle class="st7" cx="120.6" cy="215.4" r="2.7"/>
      <circle class="st7" cx="152.9" cy="281.4" r="2.7"/>
      <circle class="st7" cx="152.9" cy="222.2" r="2.7"/>
      <circle class="st7" cx="152.9" cy="251.8" r="2.7"/>
      <circle class="st7" cx="152.9" cy="310.9" r="2.7"/>
      <circle class="st7" cx="152.9" cy="340.5" r="2.7"/>
      <circle class="st7" cx="327.5" cy="281.4" r="2.7"/>
      <circle class="st7" cx="327.5" cy="222.2" r="2.7"/>
      <circle class="st7" cx="327.5" cy="251.8" r="2.7"/>
      <circle class="st7" cx="327.5" cy="310.9" r="2.7"/>
      <circle class="st7" cx="327.5" cy="340.5" r="2.7"/>
      <circle class="st7" cx="185.3" cy="232.2" r=".8"/>
      <circle class="st7" cx="185.3" cy="260.2" r=".8"/>
      <circle class="st7" cx="195.2" cy="236.3" r=".8"/>
      <circle class="st7" cx="175.4" cy="256.1" r=".8"/>
      <circle class="st7" cx="199.3" cy="246.2" r=".8"/>
      <circle class="st7" cx="171.3" cy="246.2" r=".8"/>
      <circle class="st7" cx="195.2" cy="256.1" r=".8"/>
      <circle class="st7" cx="175.4" cy="236.3" r=".8"/>
      <circle class="st7" cx="236.4" cy="232.2" r=".8"/>
      <circle class="st7" cx="236.4" cy="260.2" r=".8"/>
      <circle class="st7" cx="246.3" cy="236.3" r=".8"/>
      <circle class="st7" cx="226.5" cy="256.1" r=".8"/>
      <circle class="st7" cx="250.4" cy="246.2" r=".8"/>
      <circle class="st7" cx="222.4" cy="246.2" r=".8"/>
      <circle class="st7" cx="246.3" cy="256.1" r=".8"/>
      <circle class="st7" cx="226.5" cy="236.3" r=".8"/>
      <circle class="st7" cx="287.4" cy="232.2" r=".8"/>
      <circle class="st7" cx="287.4" cy="260.2" r=".8"/>
      <circle class="st7" cx="297.3" cy="236.3" r=".8"/>
      <circle class="st7" cx="277.5" cy="256.1" r=".8"/>
      <circle class="st7" cx="301.4" cy="246.2" r=".8"/>
      <circle class="st7" cx="273.4" cy="246.2" r=".8"/>
      <circle class="st7" cx="297.3" cy="256.1" r=".8"/>
      <circle class="st7" cx="277.5" cy="236.3" r=".8"/>
      <path class="st11" d="M427.6,283c0,44.3-35.9,80.2-80.2,80.2H106.7c-38.5,0-70.7-27.2-78.5-63.4h50.6c10.3,0,19.8-3,27.8-8.3,14-9.1,23.3-24.9,23.3-42.8v-45.4c0-.2,0-.4,0-.5h217.5c44.3,0,80.2,35.9,80.2,80.2Z"/>
      <path class="st11" d="M147.6,202.3l15.3-21.2c2.5-3.5,6.6-5.6,10.9-5.6h122.6c7.4,0,13.4,6,13.4,13.4v13.4h-162.1Z"/>
      <path class="st11" d="M294.1,162.1v13.4h-106l15.3-21.2c2.5-3.5,6.6-5.6,10.9-5.6h66.5c7.4,0,13.4,6,13.4,13.4Z"/>
      <path class="st11" d="M309.7,188.9h-64.6c-7.4,0-13.4-6-13.4-13.4h64.6c7.4,0,13.4,6,13.4,13.4Z"/>
      <path class="st11" d="M126.7,200.1c1.8,0,3.2,1.4,3.2,3.2v45.4c0,17.9-9.3,33.7-23.3,42.8-8,5.2-17.6,8.3-27.8,8.3H28.1c-1.6,0-2.9-1.1-3.2-2.7-.8-4.6-1.2-9.4-1.2-14.2s0,0,0,0c0-1,.8-1.9,1.9-1.9h53.2c11.8,0,22.2-6.4,27.8-15.9,2.9-4.8,4.5-10.5,4.5-16.5v-45.4c0-1.8,1.4-3.2,3.2-3.2h12.3Z"/>
      <path class="st11" d="M29.1,281.1h49.7c11.8,0,22.2-6.4,27.8-15.9,2.9-4.8,4.5-10.5,4.5-16.5v-43.3s-4.5,0-4.5,0c-42.2,0-76.5,33.7-77.5,75.7h0Z"/>
      <circle class="st10" cx="185.3" cy="246.2" r="16.8"/>
      <circle class="st10" cx="185.3" cy="246.2" r="11.2"/>
      <circle class="st10" cx="236.4" cy="246.2" r="16.8"/>
      <circle class="st10" cx="236.4" cy="246.2" r="11.2"/>
      <circle class="st10" cx="287.4" cy="246.2" r="16.8"/>
      <circle class="st10" cx="287.4" cy="246.2" r="11.2"/>
      <path class="st11" d="M441.3,283c0,8.3-.8,16.4-2.3,24.3,0,0,0,.1,0,.1-1.5,7.5-8.2,13-15.9,13h-4.7c2-3.9,3.8-7.9,5.2-12.1,2.6-8,4.1-16.5,4.1-25.3s-1.4-17.3-4.1-25.3c-1.4-4.2-3.1-8.3-5.2-12.1h4.7c7.7,0,14.3,5.4,15.9,13,0,0,0,.1,0,.1,1.5,7.9,2.3,16,2.3,24.3Z"/>
      <path class="st11" d="M450.4,283c0,3.5-.1,6.9-.4,10.3-.5,6.7-5,12.1-11,14.1,0,0,0-.1,0-.1,1.5-7.9,2.3-16,2.3-24.3s-.8-16.4-2.3-24.3c0,0,0-.1,0-.1,6,2,10.5,7.5,11,14.1.3,3.4.4,6.8.4,10.3Z"/>
      <path class="st11" d="M459.3,276.3v13.4h-9c.1-2.2.2-4.5.2-6.7s0-4.5-.2-6.7h9Z"/>
      <path class="st11" d="M461.9,270.9h10.2c6.7,0,12.1,5.4,12.1,12.1h0c0,6.7-5.4,12.1-12.1,12.1h-10.2c-1.5,0-2.7-1.2-2.7-2.7v-18.7c0-1.5,1.2-2.7,2.7-2.7Z"/>
      <path class="st11" d="M488.2,230.7c0,12.9-5.7,30.9-9.8,42-1.8-1.1-4-1.8-6.3-1.8h-1.6c-3.2-10.8-7.3-26.7-7.3-37.9s6.7-16,11.6-16c10.2,0,13.4,9,13.4,13.8Z"/>
      <path class="st11" d="M463.2,233c0,11.2,4.1,27.1,7.3,37.9h-8c-3.2-10.8-7.3-26.7-7.3-37.9s6.7-16,11.6-16h8c-5,0-11.6,3.7-11.6,16Z"/>
      <path class="st11" d="M477.9,333c0,6.5-1.9,10.7-4.4,13.1-2.2,2.1-4.9,3-7.2,3h0c-10.2,0-13.4-9-13.4-13.8,0-12.2,5.1-29,9.1-40.2h8.5c3.2,10.8,7.3,26.7,7.3,37.9Z"/>
      <path class="st11" d="M486,333c0,12.3-6.7,16-11.6,16h-8c2.3,0,5-.8,7.2-3,2.5-2.4,4.4-6.5,4.4-13.1,0-11.2-4.1-27.1-7.3-37.9h1.5c2.2,0,4.2-.6,6-1.6,3.3,10.8,7.8,27.8,7.8,39.6Z"/>
      <line class="st10" x1="147.6" y1="202.8" x2="147.6" y2="363.2"/>
      <line class="st10" x1="322.2" y1="203.4" x2="322.2" y2="363.2"/>
    </g>
  </g>
</svg>